<?xml version="1.0"?>
<svg xmlns="http://www.w3.org/2000/svg" xmlns:xlink="http://www.w3.org/1999/xlink" version="1.1" id="Layer_1" x="0px" y="0px" viewBox="0 0 512 512" style="enable-background:new 0 0 512 512;" xml:space="preserve" width="512px" height="512px"><g><g>
	<g>
		<path d="M440.417,0.489c-4.542-1.385-9.354,0.385-11.958,4.291l-42.667,63.996c-0.625,0.937-1.104,1.969-1.396,3.062    l-43.063,155.015V10.697c0-5.896-4.771-10.666-10.667-10.666h-85.333c-5.896,0-10.667,4.771-10.667,10.666v245.319h-7.021    L178.671,60.117c2.206-2.625,3.263-6.143,2.246-9.683c-0.936-3.303-3.4-5.626-6.369-6.807l-4.84-19.358    c-2.083-8.343-7.292-15.353-14.667-19.759c-7.333-4.364-15.896-5.604-24.125-3.531c-8.313,2.073-15.292,7.26-19.708,14.593    c-4.396,7.333-5.667,15.947-3.583,24.217l4.803,19.214C96.257,64.174,86.775,81.325,91.25,97.827l26.458,96.994    c1.292,4.75,5.604,7.864,10.292,7.864c0.917,0,1.875-0.115,2.813-0.375c5.688-1.552,9.021-7.416,7.479-13.093l-26.458-96.994    c-1.363-5.024,1.276-10.088,5.835-12.265l44.02,176.057H160c-5.896,0-10.667,4.771-10.667,10.666v10.666h-42.667    C83.146,277.347,64,296.482,64,320.012v21.332c0,47.049,38.271,85.328,85.333,85.328v42.664c0,23.53,19.146,42.664,42.667,42.664    h170.667c23.521,0,42.667-19.134,42.667-42.664V266.681c0-4.695-3.074-8.557-7.283-9.984l49.512-168.328    c0.292-0.979,0.438-1.99,0.438-3.01V10.697C448,5.999,444.917,1.854,440.417,0.489z M149.333,405.333c-35.292,0-64-28.708-64-64    V320c0-11.76,9.563-21.333,21.333-21.333h42.667V405.333z M256,21.333h64V64h-32c-5.896,0-10.667,4.771-10.667,10.667    c0,5.896,4.771,10.667,10.667,10.667h32V128h-32c-5.896,0-10.667,4.771-10.667,10.667c0,5.896,4.771,10.667,10.667,10.667h32V192    h-32c-5.896,0-10.667,4.771-10.667,10.667c0,5.896,4.771,10.667,10.667,10.667h32V256h-64V21.333z M128.333,34.573    c-0.708-2.76-0.271-5.615,1.188-8.063c1.458-2.438,3.792-4.167,6.604-4.875c2.75-0.667,5.563-0.271,7.979,1.167    c2.458,1.469,4.208,3.813,4.896,6.604l4.438,17.75l-20.495,5.855L128.333,34.573z M138.122,73.732l20.495-5.855L205.646,256    h-21.958L138.122,73.732z M384,469.333c0,11.76-9.563,21.333-21.333,21.333H192c-11.771,0-21.333-9.573-21.333-21.333v-192H384    V469.333z M376.022,256h-20.663l46.797-168.471l21.811,5.453L376.022,256z M426.667,71.677l-14.736-3.684l14.736-22.098V71.677z" data-original="#000000" class="active-path" data-old_color="#000000" fill="#FFFFFF"/>
	</g>
</svg>
